<svg viewBox="0 0 1080 1080" xmlns="http://www.w3.org/2000/svg" role="img" aria-labelledby="t">
  <title id="t">Post Instagram — Boas-vindas</title>
  <defs>
    <path id="heart" d="M16 28 C16 28 3 19.5 3 10.7 C3 6.2 6.2 3.2 10 3.2 C12.7 3.2 15 4.9 16 7.2 C17 4.9 19.3 3.2 22 3.2 C25.8 3.2 29 6.2 29 10.7 C29 19.5 16 28 16 28 Z" fill="#FFFFFF"/>
    <g id="logo">
      <circle cx="250" cy="250" r="216" fill="#F6E7DC" stroke="#163A9E" stroke-width="7"/>
      <circle cx="250" cy="250" r="199" fill="none" stroke="#163A9E" stroke-width="2.5"/>
      <g transform="translate(250 250) scale(1.25) translate(-250 -237)">
        <ellipse cx="250" cy="328" rx="86" ry="13" fill="#163A9E" opacity="0.10"/>
        <polygon points="190,232 250,204 232,168 168,194" fill="#3358CC"/>
        <polygon points="250,204 310,232 332,194 268,168" fill="#3358CC"/>
        <polygon points="190,232 250,204 310,232 250,260" fill="#102A75"/>
        <polygon points="190,232 250,260 250,320 190,292" fill="#163A9E"/>
        <polygon points="250,260 310,232 310,292 250,320" fill="#1F46BE"/>
        <g transform="translate(175,137) rotate(-12 21 21)"><rect width="42" height="42" rx="12" fill="#F8485E"/><use href="#heart" transform="translate(7.98,8.38) scale(0.814)"/></g>
        <g transform="translate(286,145) rotate(12 19 19)"><rect width="38" height="38" rx="11" fill="#F8485E"/><use href="#heart" transform="translate(7.22,7.59) scale(0.736)"/></g>
        <g transform="translate(217,144)"><rect width="66" height="66" rx="18" fill="#F8485E"/><use href="#heart" transform="translate(12.54,13.18) scale(1.279)"/></g>
      </g>
    </g>
  </defs>

  <!-- Fundo -->
  <rect width="1080" height="1080" fill="#F6E7DC"/>
  <use href="#heart" transform="translate(-20 -10) scale(7)" opacity="0.05" fill="#163A9E"/>
  <use href="#heart" transform="translate(900 930) scale(8)" opacity="0.05"/>

  <!-- Logo grande -->
  <use href="#logo" transform="translate(310 130) scale(0.92)"/>

  <!-- Texto -->
  <text x="540" y="745" text-anchor="middle" font-family="Poppins, Montserrat, Arial, sans-serif" font-size="74" font-weight="800" fill="#163A9E" letter-spacing="1">SEJA BEM-VINDO!</text>
  <text x="540" y="812" text-anchor="middle" font-family="Poppins, Montserrat, Arial, sans-serif" font-size="40" font-weight="600" fill="#1F46BE">ao Lojão da Economia</text>
  <text x="540" y="880" text-anchor="middle" font-family="Poppins, Montserrat, Arial, sans-serif" font-size="36" font-weight="500" fill="#1B40B3">Tudo o que você precisa, pagando menos.</text>

  <!-- Handle -->
  <rect x="340" y="930" width="400" height="84" rx="42" fill="#F8485E"/>
  <text x="540" y="984" text-anchor="middle" font-family="Poppins, Montserrat, Arial, sans-serif" font-size="34" font-weight="700" fill="#FFFFFF">@lojaodaeconomia</text>
</svg>
