<svg viewBox="0 0 1080 1920" xmlns="http://www.w3.org/2000/svg" role="img" aria-labelledby="t">
  <title id="t">Story Instagram — Oferta</title>
  <defs>
    <path id="heart" d="M16 28 C16 28 3 19.5 3 10.7 C3 6.2 6.2 3.2 10 3.2 C12.7 3.2 15 4.9 16 7.2 C17 4.9 19.3 3.2 22 3.2 C25.8 3.2 29 6.2 29 10.7 C29 19.5 16 28 16 28 Z" fill="#FFFFFF"/>
    <g id="logo">
      <circle cx="250" cy="250" r="216" fill="#F6E7DC" stroke="#163A9E" stroke-width="7"/>
      <circle cx="250" cy="250" r="199" fill="none" stroke="#163A9E" stroke-width="2.5"/>
      <g transform="translate(250 250) scale(1.25) translate(-250 -237)">
        <ellipse cx="250" cy="328" rx="86" ry="13" fill="#163A9E" opacity="0.10"/>
        <polygon points="190,232 250,204 232,168 168,194" fill="#3358CC"/>
        <polygon points="250,204 310,232 332,194 268,168" fill="#3358CC"/>
        <polygon points="190,232 250,204 310,232 250,260" fill="#102A75"/>
        <polygon points="190,232 250,260 250,320 190,292" fill="#163A9E"/>
        <polygon points="250,260 310,232 310,292 250,320" fill="#1F46BE"/>
        <g transform="translate(175,137) rotate(-12 21 21)"><rect width="42" height="42" rx="12" fill="#F8485E"/><use href="#heart" transform="translate(7.98,8.38) scale(0.814)"/></g>
        <g transform="translate(286,145) rotate(12 19 19)"><rect width="38" height="38" rx="11" fill="#F8485E"/><use href="#heart" transform="translate(7.22,7.59) scale(0.736)"/></g>
        <g transform="translate(217,144)"><rect width="66" height="66" rx="18" fill="#F8485E"/><use href="#heart" transform="translate(12.54,13.18) scale(1.279)"/></g>
      </g>
    </g>
  </defs>

  <!-- Fundo -->
  <rect width="1080" height="1920" fill="#1B40B3"/>
  <use href="#heart" transform="translate(-40 100) scale(8)" opacity="0.06"/>
  <use href="#heart" transform="translate(860 1500) scale(9)" opacity="0.06"/>

  <!-- Logo + wordmark -->
  <use href="#logo" transform="translate(430 200) scale(0.44)"/>
  <text x="540" y="540" text-anchor="middle" font-family="Poppins, Montserrat, Arial, sans-serif" font-size="38" font-weight="700" fill="#F6E7DC" letter-spacing="9">LOJÃO DA ECONOMIA</text>

  <!-- Tag -->
  <rect x="320" y="660" width="440" height="78" rx="39" fill="#F8485E"/>
  <text x="540" y="712" text-anchor="middle" font-family="Poppins, Montserrat, Arial, sans-serif" font-size="34" font-weight="700" fill="#FFFFFF" letter-spacing="4">OFERTA DA SEMANA</text>

  <!-- Destaque -->
  <text x="540" y="860" text-anchor="middle" font-family="Poppins, Montserrat, Arial, sans-serif" font-size="64" font-weight="700" fill="#F6E7DC" letter-spacing="6">ATÉ</text>
  <text x="540" y="1090" text-anchor="middle" font-family="Poppins, Montserrat, Arial, sans-serif" font-size="280" font-weight="800" fill="#FFFFFF" letter-spacing="-6">50%</text>
  <text x="540" y="1210" text-anchor="middle" font-family="Poppins, Montserrat, Arial, sans-serif" font-size="120" font-weight="800" fill="#F8485E" letter-spacing="8">OFF</text>
  <text x="540" y="1310" text-anchor="middle" font-family="Poppins, Montserrat, Arial, sans-serif" font-size="44" font-weight="600" fill="#F6E7DC">em produtos selecionados</text>

  <!-- Chamada -->
  <text x="540" y="1560" text-anchor="middle" font-family="Poppins, Montserrat, Arial, sans-serif" font-size="40" font-weight="600" fill="#F6E7DC" letter-spacing="3">LINK NA BIO  ↑</text>
  <rect x="290" y="1610" width="500" height="104" rx="52" fill="#F6E7DC"/>
  <text x="540" y="1677" text-anchor="middle" font-family="Poppins, Montserrat, Arial, sans-serif" font-size="42" font-weight="700" fill="#163A9E" letter-spacing="2">GARANTA O SEU</text>
  <text x="540" y="1800" text-anchor="middle" font-family="Poppins, Montserrat, Arial, sans-serif" font-size="34" font-weight="600" fill="#F6E7DC">@lojaodaeconomia</text>
</svg>
